<svg width="200" height="200" viewBox="0 0 200 200" xmlns="http://www.w3.org/2000/svg">
  <!-- Background circle -->
  <circle cx="100" cy="100" r="90" fill="#e1f5fe" stroke="#0277bd" stroke-width="3"/>
  
  <!-- Decision diamond -->
  <g transform="translate(100, 60)">
    <polygon points="0,-20 20,0 0,20 -20,0" fill="#4fc3f7" stroke="#0277bd" stroke-width="2"/>
    <text x="0" y="3" text-anchor="middle" font-family="monospace" font-size="10" fill="#01579b" font-weight="bold">if</text>
  </g>
  
  <!-- Flow arrows -->
  <g stroke="#0277bd" stroke-width="2" fill="none" marker-end="url(#arrowhead)">
    <path d="M 120 60 L 145 60 L 145 90"/>
    <path d="M 80 60 L 55 60 L 55 90"/>
    <path d="M 100 80 L 100 120"/>
  </g>
  
  <!-- Arrow marker -->
  <defs>
    <marker id="arrowhead" markerWidth="10" markerHeight="7" refX="9" refY="3.5" orient="auto">
      <polygon points="0 0, 10 3.5, 0 7" fill="#0277bd"/>
    </marker>
  </defs>
  
  <!-- True path -->
  <g transform="translate(145, 105)">
    <rect x="-20" y="-10" width="40" height="20" rx="5" fill="#f44336" opacity="0.8"/>
  </g>
  
  <!-- False path -->
  <g transform="translate(55, 105)">
    <rect x="-20" y="-10" width="40" height="20" rx="5" fill="#4caf50" opacity="0.8"/>
  </g>
  
  <!-- elif branch -->
  <g transform="translate(100, 135)">
    <rect x="-25" y="-10" width="50" height="20" rx="5" fill="#ff9800" opacity="0.8"/>
  </g>
  
</svg>