<svg width="200" height="200" viewBox="0 0 200 200" xmlns="http://www.w3.org/2000/svg">
  <!-- Background circle -->
  <circle cx="100" cy="100" r="90" fill="#f8f9fa" stroke="#3776ab" stroke-width="3"/>
  
  <!-- Python logo-inspired design -->
  <g transform="translate(100, 80)">
    <!-- Top snake curve (blue) -->
    <path d="M-25,-20 Q-35,-30 -25,-40 Q-15,-50 -5,-40 Q5,-30 15,-40 Q25,-50 35,-40 Q45,-30 35,-20 Q25,-10 15,-20 Q5,-30 -5,-20 Q-15,-10 -25,-20" 
          fill="#3776ab" opacity="0.8"/>
    <!-- Bottom snake curve (yellow) -->
    <path d="M-25,20 Q-35,10 -25,0 Q-15,-10 -5,0 Q5,10 15,0 Q25,-10 35,0 Q45,10 35,20 Q25,30 15,20 Q5,10 -5,20 Q-15,30 -25,20" 
          fill="#ffd43b" opacity="0.8"/>
  </g>
  
  <!-- Browser window frame -->
  <rect x="40" y="110" width="120" height="70" rx="8" fill="white" stroke="#dee2e6" stroke-width="2"/>
  <rect x="40" y="110" width="120" height="20" fill="#e9ecef"/>
  <circle cx="50" cy="120" r="3" fill="#dc3545"/>
  <circle cx="60" cy="120" r="3" fill="#ffc107"/>
  <circle cx="70" cy="120" r="3" fill="#28a745"/>
  
  <!-- Code lines -->
  <rect x="50" y="140" width="60" height="3" rx="1" fill="#6c757d"/>
  <rect x="50" y="150" width="80" height="3" rx="1" fill="#3776ab"/>
  <rect x="50" y="160" width="45" height="3" rx="1" fill="#6c757d"/>
</svg>