<svg viewBox="0 0 110 110" xmlns="http://www.w3.org/2000/svg">
  <path d="M 54.918785,9.1927446e-4 C 50.335132,0.02221727 45.957846,0.41313697 42.106285,1.0946347 37.218035,1.9776047 35.993635,3.0738147 35.993635,6.4997747 v 6.2499703 h 18.750054 v 2.343705 H 35.993635 28.278051 c -3.450909,0 -6.468749,2.07394 -7.415809,6.01776 -1.088809,4.50367 -1.137159,7.31945 0,12.02775 0.843329,3.49919 2.858449,6.01775 6.30936,6.01775 h 6.328139 v -5.42366 c 0,-3.92132 3.392589,-7.37509 7.415799,-7.37509 h 18.735259 c 3.29932,0 5.937049,-2.71764 5.937049,-6.03257 v -11.2968803 c 0,-3.2189 -2.716799,-5.63909 -5.937049,-6.1775 -2.02998,-0.3404 -4.138505,-0.49537 -8.735115,-0.5157 z m -10.155073,5.51183 c 1.933799,0 3.515599,1.60519 3.515599,3.57551 10e-6,1.96374 -1.5818,3.55588 -3.515599,3.55588 -1.940999,0 -3.516089,-1.59214 -3.516089,-3.55588 0,-1.97032 1.57509,-3.57551 3.516089,-3.57551 z" fill="#4584b6"/>
  <path d="m 73.576787,15.093445 v 5.26922 c 0,4.08545 -3.46425,7.52905 -7.41579,7.52905 H 47.425738 c -3.24244,0 -5.93705,2.77489 -5.93705,6.03257 v 11.29688 c 0,3.2189 2.80052,5.11133 5.93705,6.03256 3.74924,1.10457 7.34105,1.30429 11.85012,0 2.99097,-0.86702 5.93706,-2.61241 5.93706,-6.03256 v -4.51972 h -18.7353 v -2.3437 h 18.7353 7.71558 c 3.45091,0 4.74089,-2.40579 5.93705,-6.01776 1.23741,-3.71748 1.18522,-7.29251 0,-12.04257 -0.85354,-3.39919 -2.4861,-6.01775 -5.93705,-6.01775 z M 62.513605,71.320675 c 1.94101,0 3.51609,1.59213 3.51609,3.55587 0,1.97033 -1.57508,3.57551 -3.51609,3.57551 -1.9338,0 -3.51559,-1.60518 -3.51559,-3.57551 0,-1.96374 1.58179,-3.55587 3.51559,-3.55587 z" fill="#ffd43b"/>
</svg>